
<svg xmlns="http://www.w3.org/2000/svg" version="1.1" xmlns:xlink="http://www.w3.org/1999/xlink" preserveAspectRatio="none" x="0px" y="0px" width="16px" height="16px" viewBox="0 0 16 16">
<defs>
<g id="Layer0_0_FILL">
<path fill="#000000" stroke="none" d="
M 15 10
L 13 10 13 15 15 15 15 14 14 14 14 13 15 13 15 12 14 12 14 11 15 11 15 10
M 6 11
L 7 11 7 15 8 15 8 11 9 11 9 15 10 15 10 11 11 11 11 15 12 15 12 10 6 10 6 11
M 6 11
L 5 11 5 14 6 14 6 11
M 4 14
L 4 15 5 15 5 14 4 14
M 5 10
L 4 10 4 11 5 11 5 10
M 4 11
L 3 11 3 14 4 14 4 11
M 2 10
L 1 10 1 15 3 15 3 14 2 14 2 10
M 15 4
L 13 4 13 2 15 2 15 1 12 1 12 8 13 8 13 5 15 5 15 4
M 10 7
L 9 7 9 8 10 8 10 7
M 11 7
L 11 1 10 1 10 7 11 7
M 9 4
L 8 4 8 7 9 7 9 4
M 8 7
L 7 7 7 8 8 8 8 7
M 7 1
L 6 1 6 7 7 7 7 1
M 4 7
L 2 7 2 8 4 8 4 7
M 2 6
L 1 6 1 7 2 7 2 6
M 5 5
L 4 5 4 7 5 7 5 5
M 2 4
L 2 5 4 5 4 4 2 4
M 2 2
L 1 2 1 4 2 4 2 2
M 4 2
L 4 1 2 1 2 2 4 2
M 5 2
L 4 2 4 3 5 3 5 2 Z"/>
</g>
</defs>

<g transform="matrix( 1, 0, 0, 1, 0,0) ">
<use xlink:href="#Layer0_0_FILL"/>
</g>
</svg>
