
<svg xmlns="http://www.w3.org/2000/svg" version="1.1" xmlns:xlink="http://www.w3.org/1999/xlink" preserveAspectRatio="none" x="0px" y="0px" width="18px" height="18px" viewBox="0 0 18 18">
<defs>
<g id="Layer0_0_FILL">
<path fill="#2A73D9" stroke="none" d="
M 2 12
L 0 12 0 18 6 18 6 16 3.5 16 6 13.5 6 12 4.5 12 2 14.5 2 12
M 6 2
L 6 0 0 0 0 6 2 6 2 3.5 4.5 6 6 6 6 4.5 3.5 2 6 2
M 13.5 12
L 12 12 12 13.5 14.5 16 12 16 12 18 18 18 18 12 16 12 16 14.5 13.5 12
M 16 3.5
L 16 6 18 6 18 0 12 0 12 2 14.5 2 12 4.5 12 6 13.5 6 16 3.5 Z"/>
</g>
</defs>

<g transform="matrix( 1, 0, 0, 1, 0,0) ">
<use xlink:href="#Layer0_0_FILL"/>
</g>
</svg>
