
<svg xmlns="http://www.w3.org/2000/svg" version="1.1" xmlns:xlink="http://www.w3.org/1999/xlink" preserveAspectRatio="none" x="0px" y="0px" width="22px" height="19px" viewBox="0 0 22 19">
<defs>
<g id="Layer0_0_FILL">
<path fill="#2A73D9" stroke="none" d="
M 22 9
Q 22 6.8 21.05 5 20.4 3.75 19.35 2.7 18.95 2.3 18.55 1.95 16.15 0 13 0 9.35 0 6.7 2.7 4.4 4.9 4.05 7.85 4 8.4 4 9 4 9.4 4.05 9.8 4.2 11.5 4.95 12.95
L 0 16.95 0 19 3.75 19 7.45 16.05
Q 9.85 18 13 18 16.7 18 19.35 15.35 22 12.7 22 9
M 16.15 3.85
Q 16.75 4.25 17.25 4.75 18.2 5.75 18.65 6.95 19 7.9 19 9 19 11.5 17.25 13.25 15.5 15 13 15 11.25 15 9.85 14.1 9.25 13.75 8.75 13.25 7.75 12.25 7.35 11 7.1 10.35 7.05 9.65 7 9.35 7 9 7 8.45 7.1 7.9 7.4 6.1 8.75 4.75 10.55 3 13 3 14.75 3 16.15 3.85
M 17 10
L 17 8 9 8 9 10 17 10 Z"/>
</g>
</defs>

<g transform="matrix( 1, 0, 0, 1, 0,0) ">
<use xlink:href="#Layer0_0_FILL"/>
</g>
</svg>
